# xmcd
#
# Track frame offsets: 
#        150
#        13693
#        27338
#        41513
#        54710
#        69180
#        83180
#        95248
#        111383
#        126970
#        139758
#        152548
#
# Disc length: 2219 seconds
#
# Revision: 2
# Processed by: cddbd v1.5.2PL0 Copyright (c) Steve Scherf et al.
# Submitted via: ExactAudioCopy v0.95a5
#
DISCID=a108a90c
DTITLE=Max Zwo - Nicht immer, aber immer oefter
DYEAR=1995
DGENRE=Country
TTITLE0=Nicht immer, aber immer oefter
TTITLE1=I am Kreising ueber Freising
TTITLE2=Schau'n ma a'mal
TTITLE3=I bin so alloa
TTITLE4=Tausche Maehdrescher gegen eine Geisha
TTITLE5=Schneeweisse Gondeln (Hymne an den Maerchenkoenig )
TTITLE6=I will a Kau-Goerl als Frau
TTITLE7=Hey, es ist wieder Sommer
TTITLE8=Hallo, Mr. DJ
TTITLE9=Der letzte Bayer
TTITLE10=Super, Normal, Bleifrei, Diesel
TTITLE11=Aus is' und gar is'
EXTD=
EXTT0=
EXTT1=
EXTT2=
EXTT3=
EXTT4=
EXTT5=
EXTT6=
EXTT7=
EXTT8=
EXTT9=
EXTT10=
EXTT11=
PLAYORDER=
